<?xml version="1.0" encoding="UTF-8"?>
<svg id="Layer_1" data-name="Layer 1" xmlns="http://www.w3.org/2000/svg" viewBox="0 0 2000 2000">
  <defs>
    <style>
      .cls-1 {
        fill: #231f20;
      }

      .cls-1, .cls-2, .cls-3, .cls-4 {
        stroke: #231f20;
        stroke-miterlimit: 10;
      }

      .cls-2 {
        stroke-width: 85px;
      }

      .cls-2, .cls-3, .cls-4 {
        fill: none;
      }

      .cls-3 {
        stroke-width: 9px;
      }

      .cls-4 {
        stroke-width: 65px;
      }

      .cls-5 {
        fill: #2298c1;
        stroke-width: 0px;
      }
    </style>
  </defs>
  <path class="cls-5" d="m798.45,1688.34H102.8l-91.43,177.91c556.25-1212.5,1398.44-459.38,1398.44-459.38,0,0-808.37-225.33-704.69,164.06,70.31,264.06,815.62,300,1260.94,106.25"/>
  <path class="cls-3" d="m11.38,1866.25c556.25-1212.5,1398.44-459.38,1398.44-459.38,0,0-808.37-225.33-704.69,164.06,70.31,264.06,815.62,300,1260.94,106.25"/>
  <rect class="cls-1" x="81.69" y="103.75" width="1818.75" height="104.69" rx="52.34" ry="52.34"/>
  <path class="cls-4" d="m11.37,1866.25c556.25-1212.5,1398.44-459.38,1398.44-459.38,0,0-808.37-225.33-704.69,164.06,70.31,264.06,815.63,300,1260.94,106.25"/>
  <path class="cls-2" d="m1710.59,674.19c-141.76,141.76-323.19,277.34-721.88,277.34s-578.23-133.7-721.88-277.34"/>
  <path class="cls-2" d="m1487.94,479.49c-98.04,98.04-223.51,191.8-499.22,191.8s-399.88-92.46-499.22-191.8"/>
  <path class="cls-2" d="m1311.42,296.53c-61.16,61.16-139.43,119.65-311.42,119.65s-249.45-57.68-311.42-119.65"/>
</svg>